/* XPM */
static char *result[] = {
/* columns rows colors chars-per-pixel */
"80 80 20 1 ",
"  c #B56E39",
". c #B36933",
"X c #AD6430",
"o c #A9612C",
"O c #A35C29",
"+ c #3E0E0E",
"@ c #887424",
"# c #8D7927",
"$ c #694B1B",
"% c #6E581B",
"& c #725C1E",
"* c #4E2813",
"= c #553F14",
"- c #584215",
"; c #462514",
": c #844422",
"> c #8A4926",
", c #5B341C",
"< c #864624",
"1 c #8B4C2A",
/* pixels */
"      ......XXXXXXXX........          oo..................................      ",
"      ......XXXXXXXX........          oo..................................      ",
"XXXXXXXXXX............................oo..................XXXXXXXX..............",
"XXXXXXXXXX............................oo..................XXXXXXXX..............",
"ooooooOOooooooooooooooo+++++++++++++++++++++++++++++++ooooooooooooooooOOoooooooo",
"ooooooOOooooooooooooooo+++++++++++++++++++++++++++++++ooooooooooooooooOOoooooooo",
"......oo...........++++@@@@@@@@@@@@@@@###@@@@@@@@@@@@@++++............oo........",
"......oo...........++++@@@@@@@@@@@@@@@###@@@@@@@@@@@@@++++............oo........",
"......oo........+++@@@@@@@@@@@@@@@@@@@@@@@@@@@@@@@@@@@@@##+++.........OO....    ",
"......oo........+++@@@@@@@@@@@@@@@@@@@@@@@@@@@@@@@@@@@@@##+++.........OO....    ",
"......OO......XX+++@@@@@@@@@@@@@@@@@@@@@@@@@@@@@@@@@@@@@##+++ ........OO........",
"......OO......++@@@@@@@$$$$$$$$$$$$$$$$$$$$$$$$$$$$$$$@@@@@@@++.......OO........",
"      OO......++@@@@@@@$$$$$$$$$$$$$$$$$$$$$$$$$$$$$$$@@@@@@@++.......oo........",
"      OO......++@@@$$$$%%%%%%%%%&&%%%%%%%%%%%%%&&&%%%%$$$$@@@++.......oo........",
"......OO......++@@@$$$$%%%%%%%%%&&%%%%%%%%%%%%%&&&%%%%$$$$@@@++     ..OO....    ",
"......OO....++@@$$$%%%%%%%%%%%%%%%%%%%%%%%%%%%%%%%%%%%%%%%$$$@@++   ..OO....    ",
"    ..oo....++@@$$$%%%%%%%%%%%%%%%%%%%%%%%%%%%%%%%%%%%%%%%$$$@@++.....oo........",
"    ..oo....++$$%%%%%%%&&%%%%%%%%%&&%%%%%%%%%%%%%%&&%%%%&&&&&$$++.....oo........",
"......oo....++$$%%%%%%%&&%%%%%%%%%&&%%%%%%%%%%%%%%&&%%%%&&&&&$$++.....oo........",
"......oo....++$$%%%%%%%&&%%%%%%%%%&&%%%%%%%%%%%%%%&&%%%%&&&&&$$++.....oo........",
"ooooooOOoooo++%%%%%&&%%&&%%%%%%%%%%%%%&&&&&%%%%%%%%%%%%%%%%%%%%++oooooOOoooooooo",
"ooooooOOoooo++%%%%%&&%%&&%%%%%%%%%%%%%&&&&&%%%%%%%%%%%%%%%%%%%%++oooooOOoooooooo",
"............++%%%%%%%%%&&&&&&&%%%%%%%%%%%%%%%%%%%%%%%%&&%%%%%%%++XXXXXXXXXXX....",
"............++%%%%%%%%%&&&&&&&%%%%%%%%%%%%%%%%%%%%%%%%&&%%%%%%%++XXXXXXXXXXX....",
"......XXXXXX++%%&&&%%%%%%%%%%%%%%%%%%%%%%%%&&%%%%%%%%%%%%%%%%%%++...........    ",
"......XXXXXX++%%&&&%%%%%%%%%%%%%%%%%%%%%%%%&&%%%%%%%%%%%%%%%%%%++...........    ",
"    ........++%%%%%%%%%%%%%%%%%%%%%%%%%%%%%%%%%%%%%%%%%%%%%%%%%++       ..XXXXXX",
"    ........++%%%%%%%%%%%%%%%%%%%%%%%%%%%%%%%%%%%%%%%%%%%%%%%%%++       ..XXXXXX",
"......XXXXXX++%%&&&%%%%%%&&%%%%%%%%%%%%%%%%%%%%&&&&&%%%%%%%%%%%++...............",
"......XXXXXX++%%&&&%%%%%%&&%%%%%%%%%%%%%%%%%%%%&&&&&%%%%%%%%%%%++...............",
"          ..++%%&&&%%%%%%&&%%%%%%%%%%%%%%%%%%%%&&&&&%%%%%%%%%%%++XXXXX..........",
"          ..++&&%%%%%%%%%%%%%%%%%%%%%%%%%%%%%%%%%%&&%%%%%%%%%&&++XXXXX..........",
"............++&&%%%%%%%%%%%%%%%%%%%%%%%%%%%%%%%%%%&&%%%%%%%%%&&++       ..XXXXXX",
".......+++++****%%%%%&&%%&&%%%&&%%%%%%%%%%%%%%%%%%&&%%%%%%%%%****+++++  ..XXXXXX",
".......+++++****%%%%%&&%%&&%%%&&%%%%%%%%%%%%%%%%%%&&%%%%%%%%%****+++++..........",
".....++@@@@@@@@@***&&%%%%%%%%%%%%%%%%%%%%%%%%%%%%%%%%%%%&&***@@@@@@###++........",
"ooooo++@@@@@@@@@***&&%%%%%%%%%%%%%%%%%%%%%%%%%%%%%%%%%%%&&***@@@@@@###++oooooooo",
"ooo++@@@@@##@@##@@@**%%%%&&%%%%%%%&&%%%%%%%%%&&%%%%%%%%%**@@@@@@@@@@@@@@++++oooo",
"...++@@@@@##@@##@@@**%%%%&&%%%%%%%&&%%%%%%%%%&&%%%%%%%%%**@@@@@@@@@@@@@@++++....",
"...++@@@@@@@@@@@@@@**==*******************************==**@@@@@@@@@#####++++....",
"...++@@@@@@@@@@@@@@**==*******************************==**@@@@@@@@@#####++++....",
"...++@@@@@@@@@@@@@@**==*******************************==**@@@@@@@@@#####++++....",
"...++##@@@@@@@##@@@****##@@@@@@@@@@@##@@@@@@@@@@@@@@@@****@@@@@@@@@@@@@@++++....",
"...++##@@@@@@@##@@@****##@@@@@@@@@@@##@@@@@@@@@@@@@@@@****@@@@@@@@@@@@@@++++....",
"...++##$$$$$$$$$@@@**##@@@@@@@@@@@@@@@@@@@@@@@@@@@@@@@@@**@@@$$$$$$$$$@@++++..  ",
"...++##$$$$$$$$$@@@**##@@@@@@@@@@@@@@@@@@@@@@@@@@@@@@@@@**@@@$$$$$$$$$@@++++..  ",
"   ++$$%%%%%&&%%$$$**##@@@@@@@@@##@@@@@@@@@@@@@@@@@@@@@@**$$$%%%%%%%%%$$++++....",
"   ++$$%%%%%&&%%$$$**##@@@@@@@@@##@@@@@@@@@@@@@@@@@@@@@@**$$$%%%%%%%%%$$++++....",
"...++&&%%%%%%%%%%%%**@@@@@@@@@@@@@@@@@@@@@@@@@@@@@@@@@@@**%%%%%%%%%%%%%%++++....",
"...++&&%%%%%%%%%%%%**@@@@@@@@@@@@@@@@@@@@@@@@@@@@@@@@@@@**%%%%%%%%%%%%%%++++....",
"...++&&%%%%%%%%%%%%**@@@@@@@@@@@@@@@@@@@@@@@@@@@@@@@@@@@**%%%%%%%%%%%%%%++++....",
"...++%%%%%&&%%&&%%%**@@@@@@@@@##@@@@@@@@@@@@@@@###@@@@##**%%%%%%%%%%%%%%++++....",
"OOo++%%%%%&&%%&&%%%**@@@@@@@@@##@@@@@@@@@@@@@@@###@@@@##**%%%%%%%%%%%%%%++++oooo",
"OOooo++%%%%%&&&&&&&**@@@@@@@@@@@@@@@@@@@@@@##@@@@@@@@@@@**%%%%%%%%%%%%%%++oooooo",
".....++%%%%%&&&&&&&**@@@@@@@@@@@@@@@@@@@@@@##@@@@@@@@@@@**%%%%%%%%%%%%%%++......",
".....++%%%&&&&%%%%%**@@@@@@@@@@@@@@@@@@@@##@@@@@@@@@@@@@**&&&&&%%%%%%%++........",
".....++%%%&&&&%%%%%**@@@@@@@@@@@@@@@@@@@@##@@@@@@@@@@@@@**&&&&&%%%%%%%++........",
".....++%%%%%%%%%%%%**$$$$##@@@@@@@@@@@@@@@@@@@@@@@@@$$$$**%%%%%%%%%%%%++........",
".... ++%%%%%%%%%%%%**$$$$##@@@@@@@@@@@@@@@@@@@@@@@@@$$$$**%%%%%%%%%%%%++XXXXXXXX",
".... ++&&&%%%%&&%%%**%%%%$$$$$$$$$$$$$$$$$$$$$$$$$$$&&%%**%%%&&&&%%&&&++XXXXXXXX",
"XXXX.++&&&%%%%&&%%%**%%%%$$$$$$$$$$$$$$$$$$$$$$$$$$$&&%%**%%%&&&&%%&&&++........",
"XXXX.++&&&%%%%&&%%%**%%%%$$$$$$$$$$$$$$$$$$$$$$$$$$$&&%%**%%%&&&&%%&&&++........",
".....++%%%%%%%%%%%%**%%%%%%%%%%%%%%%%%%%%%%%%%%%%%%%%%%%**%%%%%%%%%%%%++......  ",
".....++%%%%%%%%%%%%**%%%%%%%%%%%%%%%%%%%%%%%%%%%%%%%%%%%**%%%%%%%%%%%%++......  ",
"XXXXX++=======--===**--==%%%%%%%&&%%%%%%%&&%%%%%%%&&====**============++........",
"XXXXX++=======--===**--==%%%%%%%&&%%%%%%%&&%%%%%%%&&====**============++........",
".......++++++++++++;;++++===========--==============++++--++++++++++++..........",
".......++++++++++++;;++++===========--==============++++--++++++++++++..........",
"ooooooOOoo++;;;;+++++::::+++++++++++++++++++++++++++::::+++++;;;;++oooOOoooooooo",
"ooooooOOoo++;;;;+++++::::+++++++++++++++++++++++++++::::+++++;;;;++oooOOoooooooo",
"XXXXXXoo..++;;;;+++++>>>>+++++++++++++++++++++++++++>>>>+++++;;;;++X..oo........",
"XXXXXXoo..++,,,,+++>>>>>>><<<<<<<<<<>>>>>>>>>>>>>>>>>>>>>>+++,,,,++X..oo........",
"      OO  ++,,,,+++>>>>>>>>>>>>>>>>>11111111111111>>>>>>>>+++,,,,++ ..oo..XXXXXX",
"      OO    ++++11>>>>>>>>>>>>>>>>>>11111111111111>>>>>>>>>>>++++   ..oo..XXXXXX",
"......oo....++++>>>>>>11111111>>>>>>>>>>>>>>>>>>>>>>>>>><<<<<++++.....OO....    ",
"......oo..............        ..........................XXXXXX........OO....    ",
"..XXXXOO..............................XXXXXXXX........................OOXXXXXX..",
"..XXXXOO..............................XXXXXXXX........................OOXXXXXX..",
"  ....OOXX..    ................        ........XXXX........          OO........",
"  ....OOXX..    ................        ........XXXX........          OO........"
};
