/* XPM */
static char *result[] = {
/* columns rows colors chars-per-pixel */
"80 80 40 1 ",
"  c #B56E39",
". c #B36933",
"X c #AD6430",
"o c #A9612C",
"O c #A35C29",
"+ c black",
"@ c #060000",
"# c #FA0403",
"$ c #FF0100",
"% c #0C0000",
"& c #F40605",
"* c #F90403",
"= c white",
"- c #E5FDFF",
"; c #E4FDFF",
": c #F20707",
"> c #F80504",
", c #FE0201",
"< c #040000",
"1 c #83E6FE",
"2 c #81E6FF",
"3 c #B00404",
"4 c #AE0404",
"5 c #AB0606",
"6 c #E3FEFF",
"7 c #080000",
"8 c #E6FDFF",
"9 c #89E3FB",
"0 c #F80404",
"q c #AA0606",
"w c #AE0505",
"e c #84E5FE",
"r c #8D0505",
"t c #900303",
"y c #8BE2FA",
"u c #AD0505",
"i c #030000",
"p c #910303",
"a c #8A0606",
"s c #A70807",
/* pixels */
"      ......XXXXXXXX........          oo..................................      ",
"      ......XXXXXXXX........          oo..................................      ",
"XXXXXXXXXX............................oo..................XXXXXXXX..............",
"XXXXXXXXXX............................oo..................XXXXXXXX..............",
"ooooooOOooooooooooooooooooooooooooooooOOooooooooooooooooooooooooooooooOOoooooooo",
"ooooooOOooooooooooooooooooooooooooooooOOooooooooooooooooooooooooooooooOOoooooooo",
"......oo..............................XXXXXXXXXXXXXX..................oo........",
"......oo..............................XXXXXXXXXXXXXX..................oo........",
"......oo..............++++++++++++++++++++++++++++....................OO....    ",
"......oo..............++++++++++++++++++++++++++++....................OO....    ",
"......OO......XXXX....++++++++++++++++++++++++++++XXXX        ........OO........",
"......OO......XXXX....++++@@@@@@@@@@@@@@@@@@@@++++XXXX        ........OO........",
"      OO..........++++++++#$$$$$$$$$$$$$$$$$$$@+++++++................oo........",
"      OO..........++++++++#$$$$$$$$$$$$$$$$$$$@+++++++................oo........",
"......OO......    ++++++++#$$$$$$$$$$$$$$$$$$$@+++++++..            ..OO....    ",
"......OO......    ++++@@@@#$$$$$$$$$$$$$$$$$$$%@@@++++..            ..OO....    ",
"    ..oo......++++++++#$$$$$$$$$$$$$$$$$$$$$$$$$$$@+++++++............oo........",
"    ..oo......++++++++#$$$$$$$$$$$$$$$$$$$$$$$$$$$@+++++++............oo........",
"......oo......++++++++#$$$$$$$$$$$$$$$$$$$$$$$$$$$@+++++++............oo........",
"......oo......++++@@@@#$$$$$$$$$$$$$$$$$$$$$$$$$$$%@@@++++............oo........",
"ooooooOOoooooo++++#$$$$$$$$$$$$$$$$$$$$$$$$$$$$$$$$$$$@+++++++ooooooooOOoooooooo",
"ooooooOOoooooo++++#$$$$$$$$$$$$$$$$$$$$$$$$$$$$$$$$$$$@+++++++ooooooooOOoooooooo",
"..............++++#$$$$$$$$$$$$$$$$$$$$$$$$$$$$$$$$$$$@+++++++..XXXXXXXXXXXX....",
"..............++++&###########****$$$$$$$$$$$$$$$$$$$$@+++++++..XXXXXXXXXXXX....",
"......XXXX++++++++============-;;;*$$$$$$$$$$$$$$$$$$$@+++++++++++..........    ",
"......XXXX++++++++============-;;;*$$$$$$$$$$$$$$$$$$$@+++++++++++..........    ",
"    ......++++++++============-;;;*$$$$$$$$$$$$$$$$$$$@+++++++++++      ..XXXXXX",
"    ......++++++++============-;;;:>>>$$$$$$$$$$$$,,,,@+++<<<<++++      ..XXXXXX",
"......XXXX++++============-;;;;;;;1222>$$$$$$$$$$$3444<+++5444<+++++++..........",
"......XXXX++++============-;;;;;;;1222>$$$$$$$$$$$3444<+++5444<+++++++..........",
"          ++++============-;;;;;;;1222>$$$$$$$$$$$3444<+++5444<+++++++..........",
"          ++++============-;;;66661222>$$$$$$$$$$$3444<+++54447<<<++++..........",
"..........++++-;;;;;;;;;;;;;;;12222222>$$$$$$$$$$$3444<+++54444444<+++  ..XXXXXX",
"..........++++-;;;;;;;;;;;;;;;12222222>$$$$$$$$$$$3444<+++54444444<+++  ..XXXXXX",
"..........++++-;;;;;;;;;;;;;;;12222222>$$$$$$$$$$$3444<+++54444444<+++..........",
"..........++++8---666666666666122299990$$$$$$$,,,,3444<+++qwww4444<+++..........",
"ooooooOOoo++++++++e222222222222222>$$$$$$$$$$$34444444<+++rtttw444<+++OOoooooooo",
"ooooooOOoo++++++++e222222222222222>$$$$$$$$$$$34444444<+++rtttw444<+++OOoooooooo",
"......oo..++++++++e222222222222222>$$$$$$$$$$$34444444<+++rtttw444<+++oo........",
"......oo..++++++++y9999999999999990$$$$$$$$$$$34444444<+++rtttuwww<+++oo........",
"......OOXXXXXX++++#$$$$$$$$$$$$$$$$$$$$$$$$$$$34444444<+++rttttttt<+++OO........",
"......OOXXXXXX++++#$$$$$$$$$$$$$$$$$$$$$$$$$$$34444444<+++rttttttt<+++OO........",
"......OO......++++#$$$$$$$$$$$$$$$$$$$$$$$$$$$34444444<+++rttttttt<+++OO........",
"......OO......++++#$$$$$$$$$$$$$$$$$$$$$$$,,,,34444444<+++rttttttt<+++OO........",
"......OO....XX++++#$$$$$$$$$$$$$$$$$$$$$$$344444444444<+++rttttttt<+++OO......  ",
"......OO....XX++++#$$$$$$$$$$$$$$$$$$$$$$$344444444444<+++rttttttt<+++OO......  ",
"    ..oo......++++#$$$$$$$$$$$$$$$$$$$$$$$344444444444<+++rttttttt<+++oo........",
"    ..oo......++++#$$$$$$$$$$$$$$$$$$$,,,,34444444wwww<+++rtttrrrri+++oo........",
"......oo....  ++++#$$$$$$$$$$$$$$$$$$$344444444444pttt<+++rttt<+++++++OO........",
"......oo....  ++++#$$$$$$$$$$$$$$$$$$$344444444444pttt<+++rttt<+++++++OO........",
"......oo......++++#$$$$$$$$$$$$$$$$$$$344444444444pttt<+++rttt<+++++++oo........",
"......oo......++++#$$$$$$$$$$$,,,,,,,,34444444wwwwpttt<+++arrri+++++++oo........",
"OOooooOOoooooo++++#$$$$$$$$$$$3444444444444444pttttttt<+++++++++++ooooOOoooooooo",
"OOooooOOoooooo++++#$$$$$$$$$$$3444444444444444pttttttt<+++++++++++ooooOOoooooooo",
"..............++++#$$$$$$$$$$$3444444444444444pttttttt<+++++++++++..............",
"..............++++#$$$,,,,,,,,344455554444wwwwpttttttt<+++++++++++..............",
"..............++++#$$$344444444444<+++5444pttttttttttt<+++++++    ..............",
"..............++++#$$$344444444444<+++5444pttttttttttt<+++++++    ..............",
"....          ++++#$$$344444444444<+++5444pttttttttttt<+++++++..........XXXXXXXX",
"....          ++++0,,,3444wwwwwwww<+++qwwwpttttttttttt<+++++++..........XXXXXXXX",
"XXXX......XXXX++++54444444pttttttt<+++rttttttttttttttt<+++..XXXXXXXXXX..........",
"XXXX......XXXX++++54444444pttttttt<+++rttttttttttttttt<+++..XXXXXXXXXX..........",
"..........    ++++54444444pttttttt<+++rttttttttttttttt<+++            ........  ",
"..........    ++++s555wwwwptttrrrri+++arrrttttttttrrrri+++            ........  ",
"XXXXXX........++++++++rttttttt<+++++++++++rttttttt<+++++++....XXXXXXXX..........",
"XXXXXX........++++++++rttttttt<+++++++++++rttttttt<+++++++....XXXXXXXX..........",
"..............++++++++rttttttt<+++++++++++rttttttt<+++++++......................",
"..............++++++++arrrrrrri+++++++++++arrrrrrri+++++++......................",
"ooooooOOoooooooooo++++++++++++++++oooo++++++++++++++++ooooooooooooooooOOoooooooo",
"ooooooOOoooooooooo++++++++++++++++oooo++++++++++++++++ooooooooooooooooOOoooooooo",
"XXXXXXoo..........++++++++++++++++XX..++++++++++++++++........XXXXXX..oo........",
"XXXXXXoo..........++++++++++++++++XX..++++++++++++++++........XXXXXX..oo........",
"      OO          ..................              ............      ..oo..XXXXXX",
"      OO          ..................              ............      ..oo..XXXXXX",
"......oo..............        ..........................XXXXXX........OO....    ",
"......oo..............        ..........................XXXXXX........OO....    ",
"..XXXXOO..............................XXXXXXXX........................OOXXXXXX..",
"..XXXXOO..............................XXXXXXXX........................OOXXXXXX..",
"  ....OOXX..    ................        ........XXXX........          OO........",
"  ....OOXX..    ................        ........XXXX........          OO........"
};
