/* XPM */
static char *result[] = {
/* columns rows colors chars-per-pixel */
"80 80 40 1 ",
"  c #B56E39",
". c #B36933",
"X c #AD6430",
"o c #A9612C",
"O c #A35C29",
"+ c black",
"@ c #060000",
"# c #FF0100",
"$ c #FA0403",
"% c #0C0000",
"& c #F90403",
"* c #F40605",
"= c #E4FDFF",
"- c #E5FDFF",
"; c white",
": c #040000",
"> c #FE0201",
", c #F80504",
"< c #F20707",
"1 c #AE0404",
"2 c #AB0606",
"3 c #B00404",
"4 c #81E6FF",
"5 c #83E6FE",
"6 c #080000",
"7 c #E3FEFF",
"8 c #AE0505",
"9 c #AA0606",
"0 c #F80404",
"q c #89E3FB",
"w c #E6FDFF",
"e c #900303",
"r c #8D0505",
"t c #84E5FE",
"y c #AD0505",
"u c #8BE2FA",
"i c #030000",
"p c #910303",
"a c #8A0606",
"s c #A70807",
/* pixels */
"      ......XXXXXXXX........          oo..................................      ",
"      ......XXXXXXXX........          oo..................................      ",
"XXXXXXXXXX............................oo..................XXXXXXXX..............",
"XXXXXXXXXX............................oo..................XXXXXXXX..............",
"ooooooOOooooooooooooooooooooooooooooooOOooooooooooooooooooooooooooooooOOoooooooo",
"ooooooOOooooooooooooooooooooooooooooooOOooooooooooooooooooooooooooooooOOoooooooo",
"......oo..............................XXXXXXXXXXXXXX..................oo........",
"......oo..............................XXXXXXXXXXXXXX..................oo........",
"......oo....................++++++++++++++++++++++++++++..............OO....    ",
"......oo....................++++++++++++++++++++++++++++..............OO....    ",
"......OO......XXXX..........++++++++++++++++++++++++++++      ........OO........",
"......OO......XXXX..........++++@@@@@@@@@@@@@@@@@@@@++++      ........OO........",
"      OO................+++++++@###################$++++++++..........oo........",
"      OO................+++++++@###################$++++++++..........oo........",
"......OO......        ..+++++++@###################$++++++++        ..OO....    ",
"......OO......        ..++++@@@%###################$@@@@++++        ..OO....    ",
"    ..oo............+++++++@###########################$++++++++......oo........",
"    ..oo............+++++++@###########################$++++++++......oo........",
"......oo............+++++++@###########################$++++++++......oo........",
"......oo............++++@@@%###########################$@@@@++++......oo........",
"ooooooOOoooooooo+++++++@###################################$++++ooooooOOoooooooo",
"ooooooOOoooooooo+++++++@###################################$++++ooooooOOoooooooo",
"................+++++++@###################################$++++XXXXXXXXXXXX....",
"................+++++++@####################&&&&$$$$$$$$$$$*++++XXXXXXXXXXXX....",
"......XXXXXX+++++++++++@###################&===-;;;;;;;;;;;;++++++++........    ",
"......XXXXXX+++++++++++@###################&===-;;;;;;;;;;;;++++++++........    ",
"    ........+++++++++++@###################&===-;;;;;;;;;;;;++++++++    ..XXXXXX",
"    ........++++::::+++@>>>>############,,,<===-;;;;;;;;;;;;++++++++    ..XXXXXX",
"......XX+++++++:1112+++:1113###########,4445=======-;;;;;;;;;;;;++++............",
"......XX+++++++:1112+++:1113###########,4445=======-;;;;;;;;;;;;++++............",
"        +++++++:1112+++:1113###########,4445=======-;;;;;;;;;;;;++++XX..........",
"        ++++:::61112+++:1113###########,44457777===-;;;;;;;;;;;;++++XX..........",
"........+++:11111112+++:1113###########,44444445===============-++++    ..XXXXXX",
"........+++:11111112+++:1113###########,44444445===============-++++    ..XXXXXX",
"........+++:11111112+++:1113###########,44444445===============-++++............",
"........+++:11118889+++:1113>>>>#######0qqqq4445777777777777---w++++............",
"ooooooOO+++:1118eeer+++:11111113###########,444444444444444t++++++++ooOOoooooooo",
"ooooooOO+++:1118eeer+++:11111113###########,444444444444444t++++++++ooOOoooooooo",
"......oo+++:1118eeer+++:11111113###########,444444444444444t++++++++..oo........",
"......oo+++:888yeeer+++:11111113###########0qqqqqqqqqqqqqqqu++++++++..oo........",
"......OO+++:eeeeeeer+++:11111113###########################$++++  ....OO........",
"......OO+++:eeeeeeer+++:11111113###########################$++++  ....OO........",
"......OO+++:eeeeeeer+++:11111113###########################$++++......OO........",
"......OO+++:eeeeeeer+++:11111113>>>>#######################$++++......OO........",
"......OO+++:eeeeeeer+++:111111111113#######################$++++......OO......  ",
"......OO+++:eeeeeeer+++:111111111113#######################$++++......OO......  ",
"    ..oo+++:eeeeeeer+++:111111111113#######################$++++    ..oo........",
"    ..oo+++irrrreeer+++:888811111113>>>>###################$++++    ..oo........",
"......oo+++++++:eeer+++:eeep111111111113###################$++++......OO........",
"......oo+++++++:eeer+++:eeep111111111113###################$++++......OO........",
"......oo+++++++:eeer+++:eeep111111111113###################$++++......oo........",
"......oo+++++++irrra+++:eeep888811111113>>>>>>>>###########$++++......oo........",
"OOooooOOoooo+++++++++++:eeeeeeep1111111111111113###########$++++ooooooOOoooooooo",
"OOooooOOoooo+++++++++++:eeeeeeep1111111111111113###########$++++ooooooOOoooooooo",
"............+++++++++++:eeeeeeep1111111111111113###########$++++................",
"............+++++++++++:eeeeeeep8888111122221113>>>>>>>>###$++++................",
"................+++++++:eeeeeeeeeeep1112+++:111111111113###$++++  ..............",
"................+++++++:eeeeeeeeeeep1112+++:111111111113###$++++  ..............",
"....            +++++++:eeeeeeeeeeep1112+++:111111111113###$++++........XXXXXXXX",
"....            +++++++:eeeeeeeeeeep8889+++:888888881113>>>0++++........XXXXXXXX",
"XXXX......XXXXXXXXXX+++:eeeeeeeeeeeeeeer+++:eeeeeeep11111112++++XXXXXX..........",
"XXXX......XXXXXXXXXX+++:eeeeeeeeeeeeeeer+++:eeeeeeep11111112++++XXXXXX..........",
"..........          +++:eeeeeeeeeeeeeeer+++:eeeeeeep11111112++++      ........  ",
"..........          +++irrrreeeeeeeerrra+++irrrreeep8888222s++++      ........  ",
"XXXXXX..............+++++++:eeeeeeer+++++++++++:eeeeeeer++++++++XXXXXX..........",
"XXXXXX..............+++++++:eeeeeeer+++++++++++:eeeeeeer++++++++XXXXXX..........",
"....................+++++++:eeeeeeer+++++++++++:eeeeeeer++++++++................",
"....................+++++++irrrrrrra+++++++++++irrrrrrra++++++++................",
"ooooooOOoooooooooooooooo++++++++++++++++oooo++++++++++++++++ooooooooooOOoooooooo",
"ooooooOOoooooooooooooooo++++++++++++++++oooo++++++++++++++++ooooooooooOOoooooooo",
"XXXXXXoo................++++++++++++++++....++++++++++++++++..XXXXXX..oo........",
"XXXXXXoo................++++++++++++++++....++++++++++++++++..XXXXXX..oo........",
"      OO          ..................              ............      ..oo..XXXXXX",
"      OO          ..................              ............      ..oo..XXXXXX",
"......oo..............        ..........................XXXXXX........OO....    ",
"......oo..............        ..........................XXXXXX........OO....    ",
"..XXXXOO..............................XXXXXXXX........................OOXXXXXX..",
"..XXXXOO..............................XXXXXXXX........................OOXXXXXX..",
"  ....OOXX..    ................        ........XXXX........          OO........",
"  ....OOXX..    ................        ........XXXX........          OO........"
};
