/* XPM */
static char *result[] = {
/* columns rows colors chars-per-pixel */
"80 80 6 1 ",
"  c #B56E39",
". c #B36933",
"X c #AD6430",
"o c #A9612C",
"O c #A35C29",
"+ c #AF6836",
/* pixels */
"      ......XXXXXXXX........          oo..................................      ",
"      ......XXXXXXXX........          oo..................................      ",
"XXXXXXXXXX............................oo..................XXXXXXXX..............",
"XXXXXXXXXX............................oo..................XXXXXXXX..............",
"ooooooOOooooooooooooooooooooooooooooooOOooooooooooooooooooooooooooooooOOoooooooo",
"ooooooOOooooooooooooooooooooooooooooooOOooooooooooooooooooooooooooooooOOoooooooo",
"......oo..............................XXXXXXXXXXXXXX..................oo........",
"......oo..............................XXXXXXXXXXXXXX..................oo........",
"......oo..............................................................OO....    ",
"......oo..............................................................OO....    ",
"......OO......XXXX..........XXXXXXXX..........XXXXXXXX        ........OO........",
"......OO......XXXX..........XXXXXXXX..........XXXXXXXX        ........OO........",
"      OO..............................................................oo........",
"      OO..............................................................oo........",
"......OO......        ....XXXX........          ........            ..OO....    ",
"......OO......        ....XXXX........          ........            ..OO....    ",
"    ..oo................XXXXXXXXXX....................................oo........",
"    ..oo................XXXXXXXXXX....................................oo........",
"......oo......................................        ................oo........",
"......oo......................................        ................oo........",
"ooooooOOooooooooooooooooooooooooooooooOOooooooooooooooooooooooooooooooOOoooooooo",
"ooooooOOooooooooooooooooooooooooooooooOOooooooooooooooooooooooooooooooOOoooooooo",
"......................................oo........................XXXXXXXXXXXX....",
"......................................oo........................XXXXXXXXXXXX....",
"......XXXXXXXX..      ................oo..        ..........................    ",
"......XXXXXXXX..      ................oo..        ..........................    ",
"    ..................................OO....XXXXXXXXXX..                ..XXXXXX",
"    ..................................OO....XXXXXXXXXX..                ..XXXXXX",
"......XXXXXX..............XXXXXXXXXX..OO......        ..........................",
"......XXXXXX..............XXXXXXXXXX..OO......        ..........................",
"          ..XXXXXXXXXX................OO......................XXXXXXXX..........",
"          ..XXXXXXXXXX................OO......................XXXXXXXX..........",
"..............................XXXXXXXXOO......XXXX............          ..XXXXXX",
"..............................XXXXXXXXOO......XXXX............          ..XXXXXX",
"......................................oo........................................",
"......................................oo........................................",
"ooooooOOooooooOOOOOOOOooooooooooooooooOOooooooooooooooooooooooooooooooOOoooooooo",
"ooooooOOooooooOOOOOOOOooooooooooooooooOOooooooooooooooooooooooooooooooOOoooooooo",
"......oo..............................................................oo........",
"......oo..............................................................oo........",
"......OOXXXXXXXX......XXXXXX......        ..XXXXXXXX......        ....OO........",
"......OOXXXXXXXX......XXXXXX......        ..XXXXXXXX......        ....OO........",
"......OO......................................XXXXXXXX................OO........",
"......OO......................................XXXXXXXX................OO........",
"......OO....XXXXXXXX            ......................................OO......  ",
"......OO....XXXXXXXX            ......................................OO......  ",
"    ..oo..........................                ............      ..oo........",
"    ..oo..........................                ............      ..oo........",
"......oo....        ..................................................OO........",
"......oo....        ..................................................OO........",
"......oo..............................................................oo........",
"......oo..............................................................oo........",
"OOooooOOooooooooooooooooooooooooooooooOOooooooooooooooooooooooooooooooOOoooooooo",
"OOooooOOooooooooooooooooooooooooooooooOOooooooooooooooooooooooooooooooOOoooooooo",
"......................................oo........................................",
"......................................oo........................................",
"....................          ........OOXXXXXX..........          ..............",
"....................          ........OOXXXXXX..........          ..............",
"....            ..........XXXX........OO......        ..................XXXXXXXX",
"....            ..........XXXX........OO......        ..................XXXXXXXX",
"XXXX......XXXXXXXXXXXX................OO..........XXXX......XXXXXXXXXX..........",
"XXXX......XXXXXXXXXXXX................OO..........XXXX......XXXXXXXXXX..........",
"..........          ..........++++    OO..............                ........  ",
"..........          ..........++++    OO..............                ........  ",
"XXXXXX................................OO......XXXXXX..........XXXXXXXX..........",
"XXXXXX................................OO......XXXXXX..........XXXXXXXX..........",
"......................................oo........................................",
"......................................oo........................................",
"ooooooOOooooooooooooooooooooooooooooooOOooooooooooooooooooooooooooooooOOoooooooo",
"ooooooOOooooooooooooooooooooooooooooooOOooooooooooooooooooooooooooooooOOoooooooo",
"XXXXXXoo..................XXXXXXXXXX..........................XXXXXX..oo........",
"XXXXXXoo..................XXXXXXXXXX..........................XXXXXX..oo........",
"      OO          ..................              ............      ..oo..XXXXXX",
"      OO          ..................              ............      ..oo..XXXXXX",
"......oo..............        ..........................XXXXXX........OO....    ",
"......oo..............        ..........................XXXXXX........OO....    ",
"..XXXXOO..............................XXXXXXXX........................OOXXXXXX..",
"..XXXXOO..............................XXXXXXXX........................OOXXXXXX..",
"  ....OOXX..    ................        ........XXXX........          OO........",
"  ....OOXX..    ................        ........XXXX........          OO........"
};
