/* XPM */
static char *result[] = {
/* columns rows colors chars-per-pixel */
"80 80 105 2 ",
"   c #020101",
".  c #090603",
"X  c #050806",
"o  c #0E0905",
"O  c #020A0C",
"+  c #0C0B09",
"@  c #130B06",
"#  c #180E07",
"$  c #140E09",
"%  c #1A0F08",
"&  c #1D1007",
"*  c #1E1108",
"=  c #23140A",
"-  c #2C1A0D",
";  c #2F1D11",
":  c #372010",
">  c #14282D",
",  c #103033",
"<  c #232223",
"1  c #212829",
"2  c #28312C",
"3  c #403A2F",
"4  c #533723",
"5  c #5D3D26",
"6  c #633E24",
"7  c #584638",
"8  c #644026",
"9  c #704424",
"0  c #744A2B",
"q  c #365C65",
"w  c #326467",
"e  c #356368",
"r  c #33777A",
"t  c #307B78",
"y  c #3D787A",
"u  c #777677",
"i  c #895027",
"p  c #A35C29",
"a  c #A7612C",
"s  c #A9612C",
"d  c #A66333",
"f  c #AD6430",
"g  c #AF6836",
"h  c #A16539",
"j  c #B06732",
"k  c #B36933",
"l  c #B56E39",
"z  c #387B80",
"x  c #40B7B7",
"c  c #40B9B7",
"v  c #41B7BC",
"b  c #49B6B9",
"n  c #5FD1DC",
"m  c #63CFD6",
"M  c #63CFDC",
"N  c #6ACEDA",
"B  c #61D1DC",
"V  c #6AD4DF",
"C  c #5CD2E0",
"Z  c #61D1E1",
"A  c #6CD5E0",
"S  c #74D6E2",
"D  c #73DEE4",
"F  c #7BDDE6",
"G  c #71DBE8",
"H  c #75E2E5",
"J  c #7BE2E9",
"K  c #7FEAEE",
"L  c #BCC3C4",
"P  c #B7D4CD",
"I  c #A7D7DC",
"U  c #A9D6DD",
"Y  c #81DBE5",
"T  c #81DEE8",
"R  c #88DEEC",
"E  c #AED3E0",
"W  c #85E4EE",
"Q  c #8CE6EE",
"!  c #85ECEF",
"~  c #8BEBEE",
"^  c #92E6ED",
"/  c #9FE7EC",
"(  c #91EAEF",
")  c #9AEAED",
"_  c #86ECF1",
"`  c #89EBF1",
"'  c #92E6F0",
"]  c #93EBF2",
"[  c #9AEAF2",
"{  c #9EECF8",
"}  c #9DF0F6",
"|  c #A8E1E7",
" . c #A5EEF3",
".. c #A8EEF2",
"X. c #A3EEF9",
"o. c #A9EDF9",
"O. c #B7EFFF",
"+. c #A5F3F7",
"@. c #A6F1FA",
"#. c #ACF3FD",
"$. c #B4F2FF",
"%. c #B8F1FE",
"&. c #C3C3C3",
"*. c #C7F5F5",
"=. c #FDFEFE",
/* pixels */
"l l l l l l k k k k k k f f s j j f f f k k k k k k k k l l l l l l l l l l s s k k k k k k k k k k k k k k k k k k k k k k k k k k k k k k k k k k l l l l l l ",
"l l l l l l k k k k k k f f f f s j f f k k k k k k k k l l l l l l l l l l s s k k k k k k k k k k k k k k k k k k k k k k k k k k k k k k k k k k l l l l l l ",
"f f f f f f f f f f k k k k k k k k k k k k k k k k k k k k k k k k k k k k s s k k k k k k k k k k k k k k k k k k f f f f f f j f k k k k k k k k k k k k k k ",
"f f f f f f f f f f k k k k k k k k k k k k k k k k k k k k k k k k k k k k s s k k k k k k k k k k k k k k k k k k f f f f f f s j k k k k k k k k k k k k k k ",
"s s s s s s p p s s s s s s s s s s s s s s s s p s s s s s s s s s s s s s p p f p f s s f s s s s s s s s s s s s s s s s s s s s s s s s p p s s s s s s s s ",
"s s s s s s p p s s s s s s s s s s s s s s s s s s s s s s s s s s s p s s p p f p s s s p f p s s s s s s s s s s s s s s s s s s s s s s p p s s s s s s s s ",
"k k k k k k s s k k k k k k k k k k k k k k k k k k k k k k k k k k k k k k j j f f f f f f f f f f f f k k k k k k k k k k k k k k k k k k s s k k k k k k k k ",
"k k k k k k s s k k k k k k k k k k k k k k k k k k k k k k k k k k k k k k f f f f f f f f f f f f f f k k k k k k k k k k k k k k k k k k s s k k k k k k k k ",
"k k k k k k s s k k k k k k k k k k k k k k k k k k k k k k k k k k k k k k k k k k k k k k k k k k k k k k k k k k k k k k k k k k k k k k p p k k k k l l l l ",
"k k k k k k s s k k k k k k k k k k k k k k k k k k k k k k k k k k k k k k k k k k k k k k k k k k k k k k k k k k k k k k k k k k k k k k p p k k k k l l l l ",
"k k k k k k p p k k k k k k f f f f k k k k k k k k k k f f f f f f j j k k k k k k k k k k f f f f f f j f l l k l l l l l k k k k k k k k p p k k k k k k k k ",
"k k k k k k p p k k k k k k f f f f k k k k k k k k k k f f f f f f f f k k k k k k k k k k f f f f f f f f l l l l l l l l k k k k k k k k p p k k k k k k k k ",
"l l l l l l p p k k k k k k k k k k k k k k k k k k k k k k k k k k k k k k k k k k k k k k k k k k k k k k k k k k k k k k k k k k k k k k s s k k k k k k k k ",
"l l l l l l p p k k k k k k k k k k k k k k k k k k k k k k k k k k k k k k k k k k k k k k k k k k k k k k k k k k k k k k k k k k k k k k s s k k k k k k k k ",
"k k k k k k p p k k k k k k l l l l l l l l k k k k f s f f k k k k k k k k l l l l l l l l l l k k k k k k k k l l l l l l l l l l l l k k p p k k k k l l l l ",
"k k k k k k p p k k k k k k l l l l l l l l k k k k f j f f k k k k k k k k l l l l l l l l l l k k k k k k k k l l l l l l l l l l l l k k p p k k k k l l l l ",
"l l l l k k s s k k k k k k k k k k k k k k k k f f f f f f f f f f k k k k k k k k k k k k k k k k k k k k k k k k k k k k k k k k k k k k s s k k k k k k k k ",
"l l l l k k s s k k k k k k k k k k k k k k k k j s f f f f f f f f k k k k k k k k k k k k k k k k k k k k k k k k k k k k k k k k k k k k s s k k k k k k k k ",
"k k k k k k s s k k k k k k k k k k k k k k k k k k k k k k k k k k k k k k k k k k k k k k l l l l l l l l k k k k k k k k k k k k k k k k s s k k k k k k k k ",
"k k k k k k s s k k k k k k k k k k k k k k k k k k k k k k k k k k k k k k k k k k k k k k l l l l l l l l k k k k k k k k k k k k k k k k s s k k k k k k k k ",
"s s s s s s p p s s s s s s s s s s s s s s s s s s s s s s s s s s s s s s p p s s s s s s s s s s s s s s s s s s s s s s s s s s s s s s p p s s s s s s s s ",
"s s s s s s p p s s s s s s s s s s s s s s s s s s s s s s s s s s s s s s p p s s s s s s s s s s s s s s s s s s s s s s s s s s s s s s p p s s s s s s s s ",
"k k k k k k k k k k k k k k k k k k k k k k k k k k k k k k k k k k k k k k s a k k k k k k k k k k k k k k k k k k k k k k k k f f f f f f f f f f f f k k k k ",
"k k k k k k k k k k f j j k j k k k k k k k k k k k k k k k k k k k k k k k a a k g g g k k k k k k k k k k k k k k k k k k k k d d d d d d f s f f f f k k k k ",
"k k k k k k f f f o @ % = = = * l l l l l l k k k k k k k k k k k k k : - = & % @ o .   l l l l l l k k k k k k k k k k k k k .   X         k k k k k k l l l l ",
"k k k k k k f f f               l l l l l l k k k k k k k j k k k k k                   l l l l l l k k k k k k k k k k k k k     X         k k k k k k l l l l ",
"l l l l k k k f     k k k k k k $ i k k k k k k k k k   X             =.=.=.=.=.=.=.=.=.            X   6 s k k l l l l l 9 .   l l l l l l     k k f f f f f f ",
"l l l l k k k j .   k k k k k k   @ k k k k k k k k k                 =.=.=.=.=.=.=.=.=.            X   8 f k k l l l l l       l l l l l l     k k f f f f f f ",
"k k k k k k f f o   f f k k k k k k             X     =.=.=.=.=.=.=.=.~ _ ` ~ ~ ! ! ~ ! =.=.=.=.=.=.=.=.u                 k k k k k k k k k     k k k k k k k k ",
"k k k k k k f s @   f s k k k k k k             X     =.=.=.=.=.=.=.=.` ` ` ~ ` ~ ~ ~ ~ =.=.=.=.=.=.=.=.u                 k k k k k k k k k     k k k k k k k k ",
"l l l l l l l l $   j k f f f f f f X X &.&.&.&.&.&.L ................@.#.#.#.#.@.#.#.#. ...............P &.&.&.&.&.&.+ X k f f f f f f s f X   k k k k k k k k ",
"l l l l l l l l .   k k f f f f f f     =.=.=.=.=.=.=.! Q ~ ! ~ ~ ~ ~ $.$.$.$.%.$.$.$.$.! Q ~ ~ ! ~ ~ W *.=.=.=.=.=.=.X   k f f f f f f f f     k k k k k k k k ",
"k k k k k k k g o   k k k k k k k k      ./ ) ) ) [ ] V B $.#.$.o.$.$.$.$.$.O.%.#.$.$.$.$.$.$.#.$.$.Q B T [ / ) ) ) ( X   k l l l l l l l l     k k s f f f f f ",
"k k k k k k k f .   k k k k k k k j   . ^ ` ~ ~ ~ ~ ! B B $.$.$.$.$.$.$.O.$.%.$.$.$.$.$.%.$.O.$.$.$.^ B F ~ ~ ~ ~ ` ! O   k l l l l l l l l     k k f f f f f f ",
"k k k k k k k f .   k k k k k k k k     ~ ~ ` ` ( ` ` B V #.#.#.#.#.#.%.$.O.$.%.$.$.$.$.#.#.$.#.#.#.^ B H ` ( ~ ` ] ! O   k k k k k k k k k     k k k k k k k k ",
"k k k k k k k f .   k k k k k k k k   . %.%.%.$.%.%.$.` ! n B B n n B $.%.$.$.%.$.$.#.$.n n n n B B G ~ +.$.%.$.%.$.$.O   k k k k k k k k k     k k k k k k k k ",
"s s s s s s p p o   p s s s p p p p X . o.X.X.X.#.$.$.] [ A A V V V A X.X.X.X.X.@.X.X.@.A A V A A A T ] @.%.%.X.X.@.X.O X s s s s s s s s s X   s s s s s s s s ",
"s s s s s s p p .   s s s s p p p p     M B B Z ^ $.$.$.$.` ! ` ~ _ ` B B B B Z B Z B B ~ ~ ! ! ~ ` } $.$.$.$.B n B C O   s s s s s s s s s     s s s s s s s s ",
"k k k k k k s s .   k k k k k k k k   . M n C n ^ $.%.$.O.` ` ` ` ` ` B Z Z C B Z Z B B ~ ` ` ` ` Q { %.$.$.$.B B n n O   k k k k k k k k k     k k k k k k k k ",
"k k k k k k s p o   k k k k k k k k     ~ ` ` ` D n B M M n M B B #.$.` ` _ _ ` _ _ _ ` %.%.N B B M Z M B M M ! _ _ _ O   k k k k k k k k k     k k k k k k k k ",
"k k k k k k p p .   f s f f f f k k     ` _ ` ` D B B n B B B n B $.$.~ ! ` ` ` _ _ ` ` $.$.B B B B B B B B n ! _ _ ! O   l l l l l k k k k     k k k k k k k k ",
"k k k k k k p p f 5     f f f s k k   . O.$.$.$.} ` ` _ ` ` ~ ` ` B B M n B B B B B n n n B ` ! ` ` ` ` ` ! ` %.$.%.$.O   l l l l l k k     p p k k k k k k k k ",
"k k k k k k p p k 0 X   k k k k k k     %.$.$.$.{ ~ _ _ ` ` ` ` ` B n B B n n m n B n n B B ` ~ ` ~ ~ ` ` ` ` $.$.$.$.O   k k k k k k k     p p k k k k k k k k ",
"k k k k k k p p k k h 7             y r Y Y T F ] @.@.+.@.@.@.@.X.H J J J J J K J J J J J H +.+.@.@.+.#.@.@.o.F T Y F y t                   p p k k k k k k k k ",
"k k k k k k p p k k k 4 % $ @ @ @ # b v m n n n ^ $.$.$.%.$.$.$.$.! ! ! _ _ ! ! ! ! _ _ ~ _ $.$.$.$.$.$.$.$.$.B n n B c x + @ & = : - - k k p p k k k k k k l l ",
"k k k k k k p p k k k k f f f f f f 3 > W ! K ! F S S S S S S S S #.@.#.#.#.#.#.#.#.#.#.#.#.S D S S S S S S S W K W ! , 2 f g k k k k j k k p p k k k k k k l l ",
"l l l l k k s s k k k k k k k k k k .   Q ~ ! ! D B n M B B M B B %.%.$.$.$.$.%.$.#.$.$.$.$.B B B B B n B B M ~ ! ! ! O . k l l l l l l k k s s k k k k k k k k ",
"l l l l k k s s k k k k k k k k k k     ( ~ ~ ~ D n M B V B B B B #.$.$.#.#.$.#.#.$.#.#.#.$.B B B B B B B B B ~ ~ ~ ! O   k l l l l l l k k s s k k k k k k k k ",
"k k k k k k s s k k k k l l l l l l   . $.$.$.$.} _ _ _ ` ` ~ ` ` n n n B B B B B B n n M M ` _ ` ` ` ` _ _ ` $.$.$.$.O   k k k k k k k k k p p k k k k k k k k ",
"k k k k k k s s k k k k l l l l l l < < I I | +.] K _ ] ] ( ] ( ~ B V A V B V V V B V V B V ] ] ] ( ( ] Q K W @.+.I U 1 < j k k k k k k k k p p k k k k k k k k ",
"k k k k k k s s k k k k k k k k k k k k     q n Z Z B $.%.$.%.$.%.~ ` ` ` _ ` _ ` ` ` _ ` ` $.$.$.%.%.$.R C M M V     k k k k k k k k k k k s s k k k k k k k k ",
"k k k k k k s s k k k k k k k k k k k k     q n Z n n $.%.%.%.$.%.! ` ` ! _ ! ` _ ! ! _ ` ` $.$.$.%.%.$.W Z C Z B .   k k k k k k k k k k k s s k k k k k k k k ",
"p p s s s s p p s s s s s s s s s s s s s s     X     n B n B n B n n $.$.$.%.$.$.$.$.$.n B M n B B n n w       . s s s s s s s s s s s s s p p s s s s s s s s ",
"p p s s s s p p s s s s s s s s s s s s s a     +     n B B B B B B B $.$.$.$.%.$.%.$.$.B Z n n n B B B e .       s s s s s s s s s s s s s p p s s s s s s s s ",
"k k k k k k k k k k k k k k k k k k k k k k k k j k k   X             m B B n B n B n n .     .     X X   k k k j k k k k k k k k k k k k k k k k k k k k k k k ",
"k k k k k k k k k k k k k k k k k k k k k k k k k k k                 C n n n n n n B n             X     k k k k k k k k k k k k k k k k k k k k k k k k k k k ",
"k k k k k k k k k k k k k k k k k k k k l l l l l l l l l l k k k k k         .     .   s j k k k k k k k k k k l l l l l l l l l l k k k k k k k k k k k k k k ",
"k k k k k k k k k k k k k k k k k k k k l l l l l l l l l l k k k k j $ & & & & * = % @ f f k k k k k k k k k k l l l l l l l l l l k k k k k k k k k k k k k k ",
"k k k k l l l l l l l l l l l l k k k k k k k k k k f f f f k k k k k g k s p p j j j j k k l l l l l l l l k k k k k k k k k k k k k k k k k k f f f f f f f f ",
"k k k k l l l l l l l l l l l l k k k k k k k k k k f f f f k k k k k k k g p p k k k k k k l l l l l l l l k k k k k k k k k k k k k k k k k k f f f f f f f f ",
"j s j f k k k k k k f f s f f f f f f f f f k k k k k k k k k k k k k k k k p p k k k k k k k k k k f f f f k k k k k k f f f f f f f f f f k k k k k k k k k k ",
"s j f f k k k k k k f f f f f f f f f f f f k k k k k k k k k k k k k k k k p p k k k k k k k k k k f f f f k k k k k k f f f s j j f f f f k k k k k k k k k k ",
"k k k k k k k k k k l l l l l l l l l l k k k k k k k k k k k g g g l l l l p p k k k k k k k k k k k k k k l l l l l l l l l l l l l l k l k k k k k k k k l l ",
"k k k k k k k k k k l l l l l l l l l l k k k k k k k k k k g g g g l l l l p p k k k k k k k k k k k k k k l l l l l l l l l l l l l l l l k k k k k k k k l l ",
"f f f f f f k k k k k k k k k k k k k k k k k k k k k k k k k k k k k k k k p p k k k k k k f f f f f f k k k k k k k k k k f f f f f f f f k k k k k k k k k k ",
"f f f f f f k k k k k k k k k k k k k k k k k k k k k k k k k k k k k k k k p p k k k k k k f f f f f f k k k k k k k k k k f f f f f f f f k k k k k k k k k k ",
"k k k k k k k k k k k k k k k k k k k k k k k k k k k k k k k k k k k k k k s s k k k k k k k k k k k k k k k k k k k k k k k k k k k k k k k k k k k k k k k k ",
"k k k k k k k k k k k k k k k k k k k k k k k k k k k k k k k k k k k k k k s s k k k k k k k k k k k k k k k k k k k k k k k k k k k k k k k k k k k k k k k k ",
"s s s s s s p p s s s s s s s f s s s s s s s s f p p f s s s s s s s s s s p p s s s s s s s s s s s s s s s s s s s s s s s s s s s s s s p p s s s s s s s s ",
"s s s p s s p p s s s s s s s p s s s s s s s s s f f p s s s s s s s s s s p p s s s s s s s s s s s s s s s s s s s s s s s s s s s s s s p p s s s s s s s s ",
"j j f f j s s s k k k k k k k k k k k k k k k k k k f f f f j f f f f f k k k k k k k k k k k k k k k k k k k k k k k k k k f f f f f f k k s s k k k k k k k k ",
"f f f f f j s s k k k k k k k k k k k k k k k k k k f f f f f f f f f f k k k k k k k k k k k k k k k k k k k k k k k k k k f f f f f f k k s s k k k k k k k k ",
"l l l l l l p p l l l l l l l l l l k k k k k k k k k k k k k k k k k k l l l l l l l l l l l l k l k k k k k k k k k k k k l l k l l l k k f s k k f f f f f f ",
"l l l l l l p p l l l l l l l l l l k k k k k k k k k k k k k k k k k k l l l l l l l l l l l l l l k k k k k k k k k k k k l l l l l l k k s s k k f f f f f f ",
"k k k k k k s s k k k k k k k k k k k k k k l l l l l l l l k k k k k k k k k k k k k k k k k k k k k k k k k k f f f f f f k k k k k k k k p p k k k k l l l l ",
"k k k k k k s p k k k k k k k k k k k k k k l l l l l l l l k k k k k k k k k k k k k k k k k k k k k k k k k k f f f f f f k k k k k k k k p p k k k k l l l l ",
"k k s j f f p p k k k k k k k k k k k k k k k k k k k k k k k k k k k k k k f f f f f f f f k k k k k k k k k k k k k k k k k k k k k k k k p p f f f f f f k k ",
"k k f f f f p p k k k k k k k k k k k k k k k k k k k k k k k k k k k k k k f f f f f f f f k k k k k k k k k k k k k k k k k k k k k k k k p p f f f f f f k k ",
"l l k k k k p p j s k k l l l l k k k k k k k k k k k k k k k k l l l l l l l l k k k k k k k k j f f f k k k k k k k k l l l l l l l l l l p p k k k k k k k k ",
"l l k k k k p p j j k k l l l l k k k k k k k k k k k k k k k k l l l l l l l l k k k k k k k k j f f f k k k k k k k k l l l l l l l l l l p p k k k k k k k k "
};
