/* XPM */
static char *result[] = {
/* columns rows colors chars-per-pixel */
"80 80 235 2 ",
"   c #010000",
".  c #0A0104",
"X  c #010B03",
"o  c #04010B",
"O  c #0A010B",
"+  c #03090B",
"@  c #12050C",
"#  c #140A08",
"$  c #001602",
"%  c #00160A",
"&  c #0A1E0E",
"*  c #031B07",
"=  c #1F1309",
"-  c #050114",
";  c #0B0215",
":  c #0B031B",
">  c #0F0D1A",
",  c #070816",
"<  c #120413",
"1  c #1C0D15",
"2  c #12031C",
"3  c #160B19",
"4  c #031215",
"5  c #01161A",
"6  c #091817",
"7  c #15171B",
"8  c #211019",
"9  c #23120B",
"0  c #042403",
"q  c #050325",
"w  c #0C0123",
"e  c #040229",
"r  c #0F0528",
"t  c #150422",
"y  c #150D25",
"u  c #16082A",
"i  c #1B0B2C",
"p  c #18052A",
"a  c #081724",
"s  c #1A1223",
"d  c #1A132C",
"f  c #1B1C2E",
"g  c #181628",
"h  c #1C0D31",
"j  c #170B34",
"k  c #1B1232",
"l  c #1E1B36",
"z  c #231D2E",
"x  c #231B25",
"c  c #241D34",
"v  c #2A1E35",
"b  c #251E3B",
"n  c #2A1E3B",
"m  c #241536",
"M  c #341930",
"N  c #152221",
"B  c #1F3821",
"V  c #16222D",
"C  c #26212D",
"Z  c #2B242D",
"A  c #2D292F",
"S  c #262328",
"D  c #312A2D",
"F  c #243B27",
"G  c #252134",
"H  c #2A2334",
"J  c #2E2A36",
"K  c #26223A",
"L  c #2C233C",
"P  c #252A3A",
"I  c #2C2B3E",
"U  c #252A37",
"Y  c #332C34",
"T  c #342D3B",
"R  c #34283C",
"E  c #293437",
"W  c #343135",
"Q  c #34303B",
"!  c #3B343B",
"~  c #3E353A",
"^  c #44353A",
"/  c #48363A",
"(  c #463636",
")  c #543C39",
"_  c #422F3D",
"`  c #572F17",
"'  c #345A2E",
"]  c #274939",
"[  c #28473C",
"{  c #2C512B",
"}  c #3F753B",
"|  c #684838",
" . c #446D3E",
".. c #2C1F42",
"X. c #271F42",
"o. c #272644",
"O. c #2B2241",
"+. c #2D2D43",
"@. c #272844",
"#. c #322542",
"$. c #332B44",
"%. c #392E43",
"&. c #372D4B",
"*. c #283943",
"=. c #2C3A49",
"-. c #3C3443",
";. c #3A3C4E",
":. c #393447",
">. c #3C3957",
",. c #453C43",
"<. c #2A4741",
"1. c #3A4B4D",
"2. c #354847",
"3. c #2E5A47",
"4. c #2D5648",
"5. c #3B564A",
"6. c #3C4D52",
"7. c #3D4E5B",
"8. c #365455",
"9. c #3A5455",
"0. c #3A555A",
"q. c #365957",
"w. c #36644C",
"e. c #3A6E58",
"r. c #366554",
"t. c #3B7355",
"y. c #3D7258",
"u. c #36714E",
"i. c #484B56",
"p. c #514F5B",
"a. c #415554",
"s. c #42535D",
"d. c #4D5355",
"f. c #5A545E",
"g. c #434F47",
"h. c #467545",
"j. c #547E43",
"k. c #447257",
"l. c #4B7F5C",
"z. c #476F5E",
"x. c #677E5C",
"c. c #595860",
"v. c #555B70",
"b. c #645F63",
"n. c #486C68",
"m. c #447E62",
"M. c #4B7A66",
"N. c #577C6C",
"B. c #5C6E74",
"V. c #577E72",
"C. c #51686B",
"Z. c #616A72",
"A. c #8A5533",
"S. c #A35C29",
"D. c #A05F34",
"F. c #A9612C",
"G. c #A5602F",
"H. c #AD6430",
"J. c #AF6A39",
"K. c #B36933",
"L. c #B56E39",
"P. c #B6713E",
"I. c #B67344",
"U. c #B87749",
"Y. c #4A8644",
"T. c #518748",
"R. c #59824D",
"E. c #59924D",
"W. c #4A845B",
"Q. c #4C8959",
"!. c #468758",
"~. c #56865A",
"^. c #5C9554",
"/. c #5E9956",
"(. c #619159",
"). c #609F52",
"_. c #5DA55D",
"`. c #68AC56",
"'. c #63A25B",
"]. c #68A95A",
"[. c #6EB45E",
"{. c #6CB95C",
"}. c #71B55F",
"|. c #73B95C",
" X c #78B45B",
".X c #468665",
"XX c #4A8565",
"oX c #468964",
"OX c #4B8965",
"+X c #468669",
"@X c #4A856A",
"#X c #4A8969",
"$X c #508365",
"%X c #53846C",
"&X c #538C6E",
"*X c #5E8467",
"=X c #56976C",
"-X c #558472",
";X c #538973",
":X c #529272",
">X c #4E8D70",
",X c #66886B",
"<X c #64957D",
"1X c #5DA661",
"2X c #6AAB65",
"3X c #68A56A",
"4X c #6EB562",
"5X c #6DBA63",
"6X c #6EB76B",
"7X c #73B562",
"8X c #74B964",
"9X c #72B46A",
"0X c #79B569",
"qX c #76BA6A",
"wX c #79BD69",
"eX c #6CAC73",
"rX c #68A475",
"tX c #79AA77",
"yX c #6CB478",
"uX c #6CB776",
"iX c #72B573",
"pX c #72BC73",
"aX c #7EB775",
"sX c #7BAB6B",
"dX c #79C069",
"fX c #84AD7A",
"gX c #88AD7B",
"hX c #88AE77",
"jX c #85B27A",
"kX c #83B776",
"lX c #82AD6E",
"zX c #7FA683",
"xX c #819D80",
"cX c #85A686",
"vX c #8DB08A",
/* pixels */
"L.L.L.L.L.L.K.K.K.K.K.K.H.H.H.H.H.H.H.H.K.K.K.K.K.K.K.K.L.L.L.L.L.L.L.L.L.L.F.F.K.K.K.K.K.K.K.K.K.K.K.K.K.K.K.K.K.K.K.K.K.K.K.K.K.K.K.K.K.K.K.K.K.K.L.L.L.L.L.L.",
"L.L.L.L.L.L.K.K.K.K.K.K.H.H.H.H.H.H.H.H.K.K.K.K.K.K.K.K.L.L.L.L.L.L.L.L.L.L.F.F.K.K.K.K.K.K.K.K.K.K.K.K.K.K.K.K.K.K.K.K.K.K.K.K.K.K.K.K.K.K.K.K.K.K.L.L.L.L.L.L.",
"H.H.H.H.H.H.H.H.H.H.K.K.K.K.K.K.K.K.K.K.K.K.K.K.K.K.K.K.K.K.K.K.K.K.K.K.K.K.F.F.K.K.K.K.K.K.K.K.K.K.K.K.K.K.K.K.K.K.H.H.H.H.H.H.H.H.K.K.K.K.K.K.K.K.K.K.K.K.K.K.",
"H.H.H.H.H.H.H.F.H.H.K.K.K.K.K.K.K.K.K.K.K.K.K.K.K.K.K.K.K.K.K.K.K.K.K.K.K.K.F.F.K.K.K.L.K.K.K.K.K.K.K.K.K.K.K.K.K.K.H.H.H.H.H.H.H.F.K.K.K.K.K.K.K.K.K.K.K.K.K.K.",
"F.F.F.F.F.F.S.S.F.F.F.F.F.F.F.F.F.F.F.F.F.F.F.F.F.F.S.H.H.S.F.F.F.F.F.F.F.F.S.S.F.F.F.F.F.F.F.F.S.H.F.F.F.F.F.F.F.F.F.F.F.F.F.F.F.F.F.F.F.F.S.S.F.F.F.F.F.F.F.F.",
"F.F.F.F.F.F.S.S.F.F.F.F.F.F.F.F.F.F.F.F.F.F.F.F.F.F.H.S.F.H.F.F.F.F.F.S.F.F.S.S.F.F.F.F.F.F.F.F.F.F.F.F.F.F.F.F.F.F.F.F.F.F.F.F.F.F.F.F.F.F.S.S.F.F.F.F.F.F.F.F.",
"K.K.K.K.K.K.F.F.K.K.K.K.K.K.K.K.K.K.K.K.K.K.    # L.K.K.K.K.K.K.L.K.K.K.K.K.      F.H.H.H.H.H.H.H.H.H.H.K.K.        K.K.K.K.K.K.K.K.K.K.K.K.F.F.K.K.K.K.K.K.K.K.",
"K.K.K.K.K.K.F.F.K.K.K.K.K.K.K.K.K.K.K.K.K.K.. %.T ) K.K.K.K.K.K.K.K.K.K.K.K.L ! Q   H.H.H.H.H.H.H.H.H.H.K.  < T Y ^ K.K.K.K.K.K.K.K.K.K.K.K.F.F.K.K.K.K.K.K.K.K.",
"K.K.K.K.K.K.F.F.K.K.K.K.K.K.K.K.K.K.K.K.K.K.. R L H K.K.K.K.K.K.K.K.K.K.K.K.c G Q   K.K.K.K.K.K.K.K.K.K.K.  < Z x D K.K.K.K.K.K.K.K.K.K.K.K.S.S.K.K.K.K.L.L.L.L.",
"K.K.K.K.K.K.F.F.K.K.K.K.K.K.K.K.K.K.K.K.K.K.. $.&.%.K.K.K.K.K.K.K.K.K.K.K.K.m G T   K.K.K.K.K.K.K.K.K.K.K.  @ Q Y ^ K.K.K.K.K.K.K.K.K.K.K.K.S.S.K.K.K.K.L.L.L.L.",
"K.K.K.K.K.K.S.S.K.K.K.K.K.K.H.H.H.H.K.K.K.K.K.I.L.I.        H.H.H.H.H.H.K.K.m G Q   K.K.K.K.H.H.F.H.        L.L.L.L.L.L.L.L.K.K.K.K.K.K.K.K.S.S.K.K.K.K.K.K.K.K.",
"K.K.K.K.K.K.S.S.K.K.K.K.K.K.H.H.H.F.K.K.K.K.K.K.K.K.x Y !   H.F.H.H.H.H.K.K.m G Q   K.K.K.K.H.H.H.H.! T !   L.L.L.L.L.L.L.L.K.K.K.K.K.K.K.K.S.S.K.K.K.K.K.K.K.K.",
"L.L.L.L.L.L.S.S.K.K.K.K.K.K.K.K.K.K.K.K.K.K.K.K.K.K.< H J   K.K.K.K.K.K.K.K.m c Q   K.K.K.K.K.K.K.K.A H Y   K.K.K.K.K.K.K.K.K.K.K.K.K.K.K.K.F.F.K.K.K.K.K.K.K.K.",
"L.L.L.L.L.L.S.S.K.K.K.K.K.K.K.K.K.K.K.K.K.K.K.K.K.K.. < 1 . K.K.K.K.K.K.K.K.c v T   K.K.K.K.K.K.K.K.1 < O   K.K.K.K.K.K.K.K.K.K.K.K.K.K.K.K.F.F.K.K.K.K.K.K.K.K.",
"K.K.K.K.K.K.S.S.K.K.K.K.K.K.. D Y   L.L.L.L.K.K.K.K.H.H.H.L.. z v c c c z c c c z c c c H v b Z Y   K.K.K.K.K.K.L.L.L.L.L.L.( z ) L.L.L.K.K.S.S.K.K.K.K.L.L.L.L.",
"K.K.K.K.K.K.S.S.K.K.K.K.K.K.. Y D   L.L.L.L.K.K.K.K.H.H.H.H.. z m c c z m z c z c c c c c c c Z     K.K.K.K.K.K.L.L.L.L.L.L.( C W = L.L.K.K.S.S.K.K.K.K.L.L.L.L.",
"L.L.L.L.K.K.F.F.K.K.K.K.K.K.. Y A   K.K.K.K.K.K.H.H.H.H.H.H.9 v b m c c c c c c c c v c v v c U I   K.K.K.K.K.K.K.K.K.K.K.K./ v T   K.K.K.K.F.F.K.K.K.K.K.K.K.K.",
"L.L.L.L.K.K.F.F.K.K.K.K.K.K.O o o   K.K.K.K.K.K.H.F.H.H.H.H.@ s i i i i i h i g d g i u p i u y y   K.K.K.K.K.K.K.K.K.K.K.P.< ; .   K.K.K.K.F.F.K.K.K.K.K.K.K.K.",
"K.K.K.K.K.K.F.F.K.K.K.K.K.K.                K.K.K.K.  o     2.r.r.r.r.r.r.w.w.r.w.y.%XT.T.T.T.R.R.x.        K.K.K.K.              L.K.K.K.K.F.F.K.K.K.K.K.K.K.K.",
"K.K.K.K.K.K.F.F.K.K.K.K.K.K.K.K.K.K.. $.,.. K.K.K.K.d ,.:.r.;X#X#X@XoX#X+X#X#X#X@X).0X7X7X7X X7X7X].$.T :.  K.K.K.K.k $.;.  K.K.K.K.K.L.K.K.F.F.K.K.K.K.K.K.K.K.",
"F.F.F.F.F.F.S.S.F.F.F.F.F.F.F.F.F.F.. c R o F.F.F.F.t L v 4.-X@X.XoX#X#X#X#X#XOX$X'.9X7X X7X7X0X4X'.L v -.  F.F.F.F.t H R   F.F.F.F.F.F.F.F.S.S.F.F.F.F.F.F.F.F.",
"F.F.F.F.F.F.S.S.F.F.F.F.F.F.F.G.F.F.# H -.o F.F.F.F.y L n 4.-X.X.X@X#X#X#X#X#XoX$X).9X7X7X7X7X7X7X].L L -.  F.F.F.F.s H :.  F.F.F.F.F.F.F.F.S.S.F.F.F.F.F.F.F.F.",
"K.K.K.K.K.K.      # K.K.K.K.K.K.K.K.K.K.K.K.        Z.B.B.m.&X.X.X+XoX#X#XoXeXeXiX~.{ { ' ' ' ' '  .                K.K.K.K.K.K.F.H.H.H.F.          H.H.K.K.K.K.",
"K.K.K.K.K.K.-.R %.` K.K.K.K.K.K.K.K.K.K.K.K.- J J U N.@X+X.X#XoXoX.X#X#X#X#X6X8X X  5 #.L L L L n   7X4XsX  * J L -.K.K.K.K.K.K.H.H.H.K.F.D Z Z .   H.H.K.K.K.K.",
"K.K.K.K.K.K.! H ! . H.H.H.H.K.K.L.L.L.L.L.L.- G G @.@X@X#XoX#XoX#X#XoX.X.X>X4X5X8X  5 b b b G G G   8X8X7X  > U H -.K.K.K.K.K.K.K.K.K.K.K.S S Z O   K.K.L.L.L.L.",
"K.K.K.K.K.K.. O O . H.H.H.H.K.K.L.L.L.L.L.L.+ g a V l.W.oXQ.oXoXoXoXoX.XW.#X4X8XqX  % g g f l l d   9X7X7X  $ > > A K.K.K.K.K.K.K.K.K.K.K.O O . .   K.L.L.L.L.P.",
"L.L.L.L.K.K.K.K.K.K.. @ O O K.K.K.K.. o O + <XXX&X$X6X6X8X8X8X8X8X8XwXqXqX8Xs u h 5.,X&X#X%X9.1.s.2.r d m E.aX7X7XcXo ; >   L.L.L.  . - - L.L.L.K.K.H.H.F.F.H.H.",
"L.L.L.L.K.K.K.K.K.H.< R Y < K.K.K.K.o T W g N.@XXXW.6X6X7X|.|.}. X}.7X8X8X2XL L ..' ,XOX#XM.1.9.9.5.O.L ..E.0X7X7XcXV J Q   L.L.L.  o Y s L.L.L.K.K.H.H.H.H.H.H.",
"K.K.K.K.K.K.H.H.H.H.; H H 2 K.K.K.K.. U U 5 >X+X@X$X6X8X{.}.}.}.}.[.7X|.8X`.G G K 5.~.$X@X@X8.s.7.6.b c O.E.kX7X0XcXs v R   K.K.K.    c : K.K.K.K.K.K.K.K.K.K.K.",
"K.K.K.K.K.K.H.F.H.H.. @ . @ K.K.K.K.X j u a :X+X+XOX6X|.[.|.4X|.}.7X|.}. X`.G K L 9.V.&X#XN.8.s.7.6.b z R ^.aX|.7XxXp p b   K.K.K.        K.K.K.K.K.K.K.K.K.K.K.",
"L.L.L.L.L.L.L.L.L.L.                  e.e.e.+X@X+X#X8X|.7X|.}.|.|.7X}.}.7X`.K v n 6.C.n.n.n.8.0.7.6.b f L ^.kX4X[.eXe.e.z.%X      #       F.K.K.K.K.K.K.K.K.K.K.",
"L.L.L.L.L.L.L.L.L.L.K.K.H.H.@ :.T 4.  @X@X@X@X+X@X@X8X|.{.7X}.7X}.}.}.}.}.`.n b ..<.s.0.0.0.7.0.8.6.b z L ^.kX{.4XyX#X+X+Xt.$.T / K.H.H.H.H.K.K.K.K.K.K.K.K.K.K.",
"K.K.K.K.K.K.K.K.K.K.K.K.K.K.o P G [   +X@X+X@X@X+X$X7X|.}.}.}.}.|.7X}.}.}.`.b n v =.s.s.0.0.6.0.7.1.b c L (.jX[.{.yX#X@X@Xy.v c / P.P.L.L.L.L.L.K.K.F.F.H.H.H.K.",
"K.K.K.K.K.K.K.K.K.K.K.K.K.K.  P K [   #X+X+X@XXX@X%X8X|.}.}.}.}.}.[.}.}.}.`.m m v =.s.0.0.0.8.s.0.6.b z L (.jX{.{.yX#X@X&Xy.n v / L.L.L.L.L.L.L.K.K.H.H.H.F.H.F.",
"K.K.K.K.K.K.K.K.K.K.K.K.K.K.o I G [   +X@X.XeXeXeXeX8X|.}.}.}.}.}.}.7X7X}.}.        % P P P U E G d.      tXtX[.{.yX#X@X@Xt.b b / K.K.K.K.K.K.K.K.K.K.K.K.K.K.K.",
"K.K.K.K.K.K.K.K.K.K.K.K.K.K.o I b <.  @X.X!.}.[.}.}.8X}.}.}.}.}.}.}.}.[.}.}.7X7X[.  6 G o.K K G L c.7X7X7X7X0X}.4XyXOX@X#Xt.L v / K.K.K.K.K.K.K.K.K.K.K.K.K.K.K.",
"F.F.F.F.F.F.S.S.F.F.F.F.F.F.. I v <.  @X@X!.}.[.[.2X7X7X|.7X7X|.7X X7X7X7X7X7X7X}.  * G G G c H U p.7X7X0X0X0X7X7XiXXX.X@Xt.L b / F.F.F.F.F.S.S.F.F.F.F.F.F.F.F.",
"F.F.F.F.F.F.S.S.F.F.F.F.F.S.o @.n <.  .X#XW.8X7X7X9X0X|.4X7X7X8X8X8X0X8X7X0X0X0X0X  $ > 4 4 > 7 , g.0X7X7X7X0X9X7XeXW..X@Xu.b b T H.F.F.F.F.S.S.F.F.F.F.F.F.F.F.",
"K.K.K.K.K.K.3 . O O O - - : c c v [   .X.XoX@X@X+XoX7X{.5X  % e e e e e e q q q j T.hX7X8X8X8X7X7X7X7X}.4X  4 u r * 7X7X7X^.L b z - - o O o O o .   L.K.K.K.K.K.",
"K.K.K.K.K.K.  T T W T T T T v c n [   .X.XoX.X@X@X!.7X|.5X  % O.o.o.o.o.o.@.@.P o.j.lX[.7X}.7X7X}.7X7X}.4X  4 o.o.F [.}.6X^.b b G H J Y T T W Y @   K.K.K.K.K.K.",
"K.K.K.K.K.K.  C z z z C C G c c n [   oX.X.X@X.X.X!.6X{.4X  % H H H G K G K G K o.j.lX7X7X7X7X X7X7X X7X4X  4 G c B }.7X X^.K b z z C z c z S z @   K.K.K.K.K.K.",
"K.K.K.K.K.K.O O ; - < < 3 ; c H n ]   #X@XoX.XOXoX!.8X5XqX  X h h h h k h h l l o.~.jX8X8X7X8X7X}.7X8X8XdX  + b l B dX8X8X^.K b c : : 8 8 8 8 1 = . K.K.K.K.K.K.",
"K.K.K.K.K.K.S.G.L.L.L.K.K.L., G n ]   oXOXQ.2X2X2X2X      n.k.k.k.k.k.k.k.k.1.1.2.          8X7X7X7Xc.c.v.9.1.2.2.1.        K K I   I.L.L.L.S.S.L.K.K.K.K.K.K.K.",
"K.K.K.K.K.K.S.S.K.K.K.K.K.K.X $.v [   #XXXQ.8X7X8X7Xs v L 3.%X.X.X.X.X.XXXXX8.8.q.;.f v H & qX7X[.).L K o.2.a.9.0.i.L O.O.L K c J U.K.K.K.K.S.S.K.K.K.K.K.K.K.K.",
"K.K.K.K.K.K.S.S.K.K.K.K.H.H.o R U ]   oX$XQ.|.8X7X7Xs L n 3.-X.X.X#X.XXX@XXX8.8.q.;.f v v & 8XqX7X`.n L m 2.a.9.0.i.O.O.O...R H Y L.H.K.K.K.S.S.K.K.K.K.K.K.L.L.",
"K.K.K.K.K.K.S.S.K.K.K.K.H.F.+ R n ]   #XOXQ.8X7X8X7Xs L n 3.-X.X.X.X.X.XXXXX8.9.q.;.f v v & 7X7X[.'.h d l   a.9.0.i.h h j M G.A.A.K.K.K.K.K.S.S.K.K.K.K.K.K.L.L.",
"L.L.L.L.K.K.F.F.K.K.K.K.K.K.. $.n ]   oX!.Q.7X8X8X7Xs n n 3.-X@X.X.X.X.XXX$X9.8.0.;.f v v & 8XqX8XwXcXfXtX  4 G l F cXzXcX,X_ ) | P.L.L.K.K.F.F.K.K.K.K.K.K.K.K.",
"L.L.L.L.K.K.F.F.K.K.K.K.K.K.o %.v [   #XoXQ.5X8X7X8Xs L ..3.-X+X#X+X+X@X@X@X8.8.0.;.f v v & 8X7X8X].}.}.[.  , n m F 9X9X9X/.X.v Y P.L.P.K.K.F.S.K.K.K.K.K.K.K.K.",
"K.K.K.K.K.K.F.F.K.K.K.K.L.L.o Z C [   #XOXQ.dX{.5X4Xs v ..4.V.#X+X@X@X@X@X@X9.8.q.;.f v L & 8X7X4X7X9X8X4X  5 K l { 9X4X7X^.H x J K.K.K.K.K.S.S.K.K.K.K.K.K.K.K.",
"K.K.K.K.K.K.F.F.K.K.K.K.L.L.  o o N   %X%X~.dX4X4X4Xi n ..4.V.;X@X@X@X%X%X@X8.8.q.;.f v v & 8X7XqXwX9XqX6X  $ 5 4 $ sXaXaX(.o O o U.K.K.K.K.S.S.K.K.K.K.K.K.K.K.",
"K.K.K.K.K.K.F.F.K.K.o O O O K.K.K.K.o g d 6 7X7X X2Xs v X.*.s.8.8.8.8.8.6.9.8.8.q.;.f v v & 8X7X9X]..XXXXX_.pX8X|.  t p m   K.K.K.  O - - K.F.F.K.K.K.K.K.K.K.K.",
"K.K.K.K.K.K.F.F.K.K.o T J o K.K.K.K.o @.L 4 dX|.7X0Xs L O.*.s.8.q.q.8.8.8.8.9.9.0.;.f v v & 8X9X7X7XXX@XW.1XpX7X X  m n &.  K.K.K.  O Y z K.F.F.K.K.K.K.K.K.K.K.",
"S.S.F.F.F.F.S.S.F.F.o J H - F.F.F.F.o c I $ 7X[.7X9Xs n ..*.s.q.q.q.q.8.9.9.q.q.q.;.f v v & 8X7X7X4XXX$X.X1XpX8X Xo d z R   F.F.F.  . c 3 F.S.S.F.F.F.F.F.F.F.F.",
"S.S.F.F.F.F.S.S.F.F.  . o o F.F.F.F.o - o   gX0X7X7Xt p j Q i.9.9.a.a.0.0.9.a.a.a.>.w p i $ 9X2X2X2X.XOXOX1XpXqXdXtXo - -   F.F.F.    . O F.S.S.F.F.F.F.F.F.F.F.",
"K.K.K.K.K.K.        K.K.K.K.K.K.K.K.K.K.L.K.{ p.p.p.].).3X  N $.+.+.+.+.+.+.+.+.&.h.rX2X3XrX=X=X=X=X.X+X:X  6.i.7.d.K.K.K.K.K.K.K.K.K.K.            K.K.K.K.K.K.",
"K.K.K.K.K.K.  R %.; K.K.K.K.K.K.K.K.K.K.K.K.O L L L 7X7X4X  % K K G G G K l K b o.Y.kX X8XuXm.+X+X+X+X@X@X  a H l J K.K.K.K.K.K.K.K.K.K.  Y Z D     K.K.K.K.K.K.",
"K.K.K.K.K.K.  R -.; K.K.K.K.K.K.K.K.K.K.L.L.; #.#.$.7X7X{.  % O.K X.c v K n b n ..Y.aX8X8XpXm.+X+X+XoX+X@X  6 I I Q L.L.L.L.L.L.L.L.K.K.K.S S D #   K.K.K.K.K.K.",
"K.K.K.K.K.H.< 2 t - K.K.K.K.K.K.K.K.K.K.L.L.O w w w 7X}.4X  % d u u u y u u u u p Y.aX7X9X9Xm.@XoX+X+X+XM.  - , - > L.L.L.L.L.L.L.L.K.K.K..   . .   K.K.K.K.K.K.",
"K.K.K.K.L.L.L.L.L.L.L.L.L.L.L.L.K.K.. : ; ; K.K.H.K.+ 7 6 h.vXfXfXfXfXfXfXjXfXcXfXrX!.Q.!.W..XXXoX@Xa N E   K.K.K.K.: o :   K.K.K.K.K.K.K.K.K.K.F.H.H.H.H.H.H.H.",
"K.K.K.K.L.L.L.L.L.L.L.L.L.L.L.L.K.K.  H T ; K.K.K.K.y P O. .kX{.{.{.{.{.{.{.{.{.[.3X!.XXoXOXl.XX.XXXb K W   K.K.K.K.: H J   K.K.K.K.K.K.K.K.K.K.H.H.H.H.H.H.H.H.",
"H.H.H.H.K.K.K.K.K.K.H.H.H.H.H.H.H.H.. C Y . K.K.K.K.y I O.h.aX7X}.}.}.}.}.}.}.[.7XrXQ.XX.X@XW.@XXXXXc m W   K.K.K.K.; H H   H.H.H.H.H.H.H.H.K.K.K.K.K.K.K.K.K.K.",
"H.H.H.H.K.K.K.K.K.L.H.F.H.H.H.H.H.H.  . <   K.K.K.K..   o ' vXcXgXgXgXgXhXhXhXgXhX<XXX;X;X;XM.M.-XN.X .     K.K.K.K.o O O . H.H.H.H.H.H.H.H.K.K.K.K.K.K.K.K.K.K.",
"K.K.K.K.K.K.K.K.K.K.L.L.L.L.. . @   L.L.K.K.K.K.K.K.L.K.K.L.- t w w w w w w q w w r r r r r r f c   K.K.K.K.L.L.P.L.L.L.P.U.< , @ I.L.L.L.L.K.K.K.K.K.K.K.K.L.L.",
"K.K.K.K.K.K.K.K.K.K.L.L.L.P.< -.W   L.L.K.K.K.K.K.K.K.K.K.L.3 $.L L O.O.L L @.L @.O.O.o.O.O.K c K   K.K.K.K.L.L.L.L.L.L.L.P.,.T ,.P.L.L.L.L.K.K.K.K.K.K.K.K.L.L.",
"H.H.H.H.H.H.K.K.K.K.K.K.K.K.2 A R   K.K.K.K.K.K.K.K.K.K.K.L.< U b L b b o.b G b b c b c c b c G U   H.H.K.K.K.K.K.K.K.K.K.P.~ H Y H.H.H.H.H.L.K.K.K.K.K.K.K.K.K.",
"H.H.H.H.H.H.K.K.K.K.K.K.K.K.< S Z   K.K.K.K.K.K.K.K.K.K.K.I.. L c c c c c c c G G G G c c c b C Y = H.F.K.K.K.K.K.K.K.K.K.L.~ s Y L.H.F.H.H.K.K.K.K.K.K.K.K.K.K.",
"K.K.K.K.K.K.K.K.K.K.K.K.K.K.K.K.K.K.K.K.K.K.K.K.K.K.        K.K.K.K.K.K.K.K.c c T   H.K.K.K.K.K.H.L.f.f.b.  K.K.K.K.K.K.K.K.K.K.K.K.K.K.K.K.K.K.K.K.K.K.K.K.K.K.",
"K.K.K.K.K.K.K.K.K.K.K.K.K.K.K.K.K.K.K.K.K.K.K.K.K.K.3 T !   K.K.K.K.K.K.K.K.z H T   K.K.K.K.K.K.K.K.T L ~   K.K.K.K.K.K.K.K.K.K.K.K.K.K.K.K.K.K.K.K.K.K.K.K.K.K.",
"F.F.F.F.F.F.S.S.F.F.F.F.F.F.F.H.F.F.F.F.F.F.F.F.F.F.3 Y W   F.F.F.F.F.F.F.F.z C W   F.F.F.F.F.F.F.F.T T -.  F.F.F.F.F.F.F.F.F.F.F.F.F.F.F.F.S.S.F.F.F.F.F.F.F.F.",
"F.F.F.F.F.F.S.S.F.F.F.F.F.F.F.S.F.F.F.F.F.F.H.H.F.          F.F.F.F.F.F.F.F.c G T   F.F.F.F.F.F.F.F.        F.H.F.J.F.F.F.F.F.F.F.F.F.F.F.F.S.S.F.F.F.F.F.F.F.F.",
"H.H.H.H.H.H.F.F.K.K.K.K.K.K.K.K.K.K.K.K.K.K.# O ; O   H.H.H.H.H.H.H.H.H.K.K.z c T   K.K.K.K.K.K.K.K.K.K.K.  . O @ O K.K.K.K.H.H.H.H.H.H.K.K.F.F.K.K.K.K.K.K.K.K.",
"H.H.H.H.H.H.F.F.K.K.K.K.K.K.K.K.K.K.K.K.K.K.. z z Y   H.H.H.H.H.H.H.H.F.K.K.c G T   K.K.K.K.K.K.K.K.K.K.K.  o S 8 ~ K.K.K.K.H.H.H.H.F.F.K.K.F.F.K.K.K.K.K.K.K.K.",
"L.L.L.L.L.L.S.S.L.L.L.L.L.L.L.L.L.L.K.K.K.K.. J R -.  K.K.K.K.K.K.K.K.K.L.L.W T !   L.L.L.L.L.L.L.L.K.K.K.  . Y Y ,.K.K.K.K.L.L.P.L.L.L.K.K.F.F.K.K.H.H.H.H.H.H.",
"L.L.L.L.L.L.S.S.L.L.L.L.L.L.L.L.L.L.K.K.K.K.. . . o K.K.K.K.K.K.K.K.K.K.L.L.. . O   L.L.L.L.L.L.L.L.K.K.K.  @ . . . K.K.K.K.L.L.P.L.L.L.K.K.F.F.K.K.H.H.H.H.H.H.",
"K.K.K.K.K.K.F.F.K.K.K.K.K.K.K.K.K.K.K.K.K.K.L.L.P.L.L.L.L.L.K.K.K.K.K.K.K.K.K.K.K.K.K.K.K.K.K.K.K.K.K.K.K.K.K.K.H.H.H.H.H.H.K.K.K.K.K.K.K.K.S.S.K.K.K.K.L.L.L.L.",
"K.K.K.K.K.K.F.F.K.K.K.K.K.K.K.K.K.K.K.K.K.K.L.L.L.L.L.L.L.L.K.K.K.K.K.K.K.K.K.K.K.K.K.K.K.K.K.K.K.K.K.K.K.K.K.K.H.H.H.H.H.H.K.K.K.K.K.K.K.K.S.S.K.K.K.K.L.L.L.L.",
"K.K.H.H.H.H.S.S.K.K.K.K.K.K.K.K.K.K.K.K.K.K.K.K.K.K.K.K.K.K.K.K.K.K.K.K.K.K.H.H.H.H.H.H.H.H.K.K.K.K.K.K.K.K.K.K.K.K.K.K.K.K.K.K.K.K.K.K.K.K.S.S.H.H.H.H.H.H.K.K.",
"K.K.H.H.H.H.S.S.K.K.K.K.K.K.K.K.K.K.K.K.K.K.K.K.K.K.K.K.K.K.K.K.K.K.K.K.K.K.H.H.H.H.H.H.H.H.K.K.K.K.K.K.K.K.K.K.K.K.K.K.K.K.K.K.K.K.K.K.K.K.S.S.H.H.H.H.H.H.K.K.",
"L.L.K.K.K.K.S.S.F.H.L.K.L.L.L.L.K.K.K.K.K.K.K.K.K.K.K.K.K.K.K.K.L.L.L.L.L.L.L.L.K.K.K.K.K.K.K.K.F.H.H.H.K.K.K.K.K.K.K.K.L.L.L.L.L.L.L.L.L.L.S.S.K.K.K.K.K.K.K.K.",
"L.L.K.K.K.K.S.S.H.H.K.K.L.L.L.L.K.K.K.K.K.K.K.K.K.K.K.K.K.K.K.K.L.L.L.L.L.L.L.L.K.K.K.K.K.K.K.K.H.H.H.H.K.K.K.K.K.K.K.K.L.L.L.L.L.L.L.L.L.L.S.S.K.K.K.K.K.K.K.K."
};
